<svg viewBox="0 0 25 24" fill="currentColor" xmlns="http://www.w3.org/2000/svg" class=""><path d="m17.602 6.65 3.852-.974a12.42 12.42 0 0 0-2.44-2.678L17.602 6.65ZM13.957 10.93l3.248-8.7a.077.077 0 0 0 0-.078A11.676 11.676 0 0 0 10.17.871l3.698 10.046M23.647 11.854c.045-1.3-.125-2.6-.501-3.845a.782.782 0 0 0-.732-.563h-.167l-4.93 1.076a.77.77 0 0 0-.539.436l-3.338 7.995a.729.729 0 0 0 .154.808l3.582 3.677a.745.745 0 0 0 .899.141 12.055 12.055 0 0 0 3.976-4.154 12.028 12.028 0 0 0 1.596-5.52M12.542 12.93 7.817.076A.128.128 0 0 0 7.702 0a12.05 12.05 0 0 0-6.625 5.446.115.115 0 0 0 0 .14l10.386 9.79a.118.118 0 0 0 .097.052.116.116 0 0 0 .096-.051l.886-2.384a.077.077 0 0 0 0-.077M9.553 23.423c2.226.477 4.542.308 6.675-.487L.566 8.046a11.972 11.972 0 0 0 1.07 9.681 12.002 12.002 0 0 0 7.917 5.696Z"></path></svg>